<svg width="32" height="32" viewBox="0 0 32 32" fill="none" xmlns="http://www.w3.org/2000/svg">
<path d="M8.25334 9.41325C8.6 9.35992 8.96001 9.33325 9.33334 9.33325H22.6667C23.0133 9.33325 23.3467 9.34657 23.6667 9.3999C27.1067 9.7999 29.3333 12.3466 29.3333 15.9999V22.6666C29.3333 26.6666 26.6667 29.3333 22.6667 29.3333H10.1733C10.5867 28.9866 10.9467 28.5599 11.2267 28.0799C11.72 27.2799 12 26.3333 12 25.3333C12 22.3866 9.61334 19.9999 6.66667 19.9999C5.06667 19.9999 3.64001 20.7066 2.66667 21.8132V15.9999C2.66667 14.8399 2.89334 13.7866 3.30667 12.8932" stroke="#2E90FA" stroke-width="1.5" stroke-linecap="round" stroke-linejoin="round"/>
<path d="M12 25.3333C12 26.3333 11.72 27.28 11.2267 28.08C10.3067 29.6267 8.61333 30.6667 6.66666 30.6667C4.71999 30.6667 3.02666 29.6267 2.10666 28.08C1.61333 27.28 1.33333 26.3333 1.33333 25.3333C1.33333 22.3867 3.71999 20 6.66666 20C9.61333 20 12 22.3867 12 25.3333Z" stroke="#2E90FA" stroke-width="1.5" stroke-miterlimit="10" stroke-linecap="round" stroke-linejoin="round"/>
<path d="M4.58665 25.3333L5.90666 26.6532L8.74666 24.0266" stroke="#2E90FA" stroke-width="1.5" stroke-linecap="round" stroke-linejoin="round"/>
<path d="M23.6667 9.40004C23.3467 9.34671 23.0133 9.33339 22.6667 9.33339H9.33333C8.95999 9.33339 8.59999 9.36005 8.25333 9.41339C8.43999 9.04005 8.70666 8.69343 9.02666 8.37343L13.36 4.02675C15.1867 2.21341 18.1467 2.21341 19.9733 4.02675L22.3067 6.38669C23.16 7.22669 23.6133 8.29337 23.6667 9.40004Z" stroke="#2E90FA" stroke-width="1.5" stroke-linecap="round" stroke-linejoin="round"/>
<path d="M29.3333 16.6667H25.3333C23.8667 16.6667 22.6667 17.8667 22.6667 19.3334C22.6667 20.8001 23.8667 22.0001 25.3333 22.0001H29.3333" stroke="#2E90FA" stroke-width="1.5" stroke-linecap="round" stroke-linejoin="round"/>
</svg>
