<svg width="32" height="32" viewBox="0 0 32 32" fill="none" xmlns="http://www.w3.org/2000/svg">
<path d="M23.72 30.32H8.28001C4.62667 30.32 1.66667 27.3466 1.66667 23.6933V13.8133C1.66667 12 2.78667 9.71995 4.22667 8.59995L11.4133 2.99995C13.5733 1.31995 17.0267 1.23995 19.2667 2.81329L27.5067 8.58662C29.0933 9.69329 30.3333 12.0666 30.3333 14V23.7066C30.3333 27.3466 27.3733 30.32 23.72 30.32ZM12.64 4.57329L5.45334 10.1733C4.50667 10.92 3.66667 12.6133 3.66667 13.8133V23.6933C3.66667 26.24 5.73334 28.32 8.28001 28.32H23.72C26.2667 28.32 28.3333 26.2533 28.3333 23.7066V14C28.3333 12.72 27.4133 10.9466 26.36 10.2266L18.12 4.45329C16.6 3.38662 14.0933 3.43995 12.64 4.57329Z" fill="#2E90FA"/>
<path d="M9.99999 23C9.74666 23 9.49333 22.9067 9.29333 22.7067C8.90666 22.32 8.90666 21.68 9.29333 21.2933L13.56 17.0267C13.7733 16.8133 14.0533 16.7067 14.36 16.7333C14.6533 16.76 14.92 16.92 15.0933 17.1733L16.5467 19.36L21.28 14.6267C21.6667 14.24 22.3067 14.24 22.6933 14.6267C23.08 15.0133 23.08 15.6533 22.6933 16.04L17.0933 21.64C16.88 21.8533 16.6 21.96 16.2933 21.9333C16 21.9067 15.7333 21.7467 15.56 21.4933L14.1067 19.3067L10.7067 22.7067C10.5067 22.9067 10.2533 23 9.99999 23Z" fill="#2E90FA"/>
<path d="M22 19C21.4533 19 21 18.5467 21 18V16.3334H19.3333C18.7867 16.3334 18.3333 15.88 18.3333 15.3334C18.3333 14.7867 18.7867 14.3334 19.3333 14.3334H22C22.5467 14.3334 23 14.7867 23 15.3334V18C23 18.5467 22.5467 19 22 19Z" fill="#2E90FA"/>
</svg>
