<svg width="32" height="32" viewBox="0 0 32 32" fill="none" xmlns="http://www.w3.org/2000/svg">
<path d="M16 30.3334C10.6667 30.3334 6.33333 26.5067 6.33333 21.8V16.8667C6.33333 16.32 6.78666 15.8667 7.33333 15.8667C7.87999 15.8667 8.33333 16.32 8.33333 16.8667C8.33333 20.36 11.6267 23 16 23C20.3733 23 23.6667 20.36 23.6667 16.8667C23.6667 16.32 24.12 15.8667 24.6667 15.8667C25.2133 15.8667 25.6667 16.32 25.6667 16.8667V21.8C25.6667 26.5067 21.3333 30.3334 16 30.3334ZM8.33333 21.9467C8.42666 25.48 11.8267 28.3334 16 28.3334C20.1733 28.3334 23.5733 25.48 23.6667 21.9467C21.9333 23.8267 19.1867 25 16 25C12.8133 25 10.08 23.8267 8.33333 21.9467Z" fill="#2E90FA"/>
<path d="M16 18.3333C12.32 18.3333 9.01331 16.68 7.39998 14.0133C6.70665 12.88 6.33333 11.56 6.33333 10.2C6.33333 7.90663 7.36 5.74663 9.21333 4.11996C11.0267 2.53329 13.44 1.66663 16 1.66663C18.56 1.66663 20.96 2.5333 22.7867 4.10663C24.64 5.74663 25.6667 7.90663 25.6667 10.2C25.6667 11.56 25.2933 12.8666 24.6 14.0133C22.9867 16.68 19.68 18.3333 16 18.3333ZM16 3.66663C13.92 3.66663 11.9733 4.35996 10.52 5.63996C9.10668 6.86663 8.33333 8.4933 8.33333 10.2C8.33333 11.2 8.59998 12.1333 9.10664 12.9733C10.3733 15.0533 13.0133 16.3333 16 16.3333C18.9867 16.3333 21.6267 15.04 22.8933 12.9733C23.4133 12.1333 23.6667 11.2 23.6667 10.2C23.6667 8.4933 22.8933 6.86663 21.4667 5.61329C20.0133 4.35996 18.08 3.66663 16 3.66663Z" fill="#2E90FA"/>
<path d="M16 25C10.4933 25 6.33333 21.5066 6.33333 16.8666V10.2C6.33333 5.49329 10.6667 1.66663 16 1.66663C18.56 1.66663 20.96 2.5333 22.7867 4.10663C24.64 5.74663 25.6667 7.90663 25.6667 10.2V16.8666C25.6667 21.5066 21.5067 25 16 25ZM16 3.66663C11.7733 3.66663 8.33333 6.59996 8.33333 10.2V16.8666C8.33333 20.36 11.6267 23 16 23C20.3733 23 23.6667 20.36 23.6667 16.8666V10.2C23.6667 8.49329 22.8933 6.86662 21.4667 5.61329C20.0133 4.35996 18.08 3.66663 16 3.66663Z" fill="#2E90FA"/>
</svg>
